<svg xmlns="http://www.w3.org/2000/svg" id="root">
    <symbol viewBox="0 0 330 330" id="backToTop">

        <g id="SVGRepo_bgCarrier" stroke-width="0"></g>
        <g id="SVGRepo_tracerCarrier" stroke-linecap="round" stroke-linejoin="round"></g>
        <g id="SVGRepo_iconCarrier">
            <path id="XMLID_224_"
                d="M325.606,229.393l-150.004-150C172.79,76.58,168.974,75,164.996,75c-3.979,0-7.794,1.581-10.607,4.394 l-149.996,150c-5.858,5.858-5.858,15.355,0,21.213c5.857,5.857,15.355,5.858,21.213,0l139.39-139.393l139.397,139.393 C307.322,253.536,311.161,255,315,255c3.839,0,7.678-1.464,10.607-4.394C331.464,244.748,331.464,235.251,325.606,229.393z">
            </path>
        </g>
    </symbol>



    <symbol id="bottom_arrow" viewBox="0 0 29 29">
        <path d="m20.5 11.5-6 6-6-6" />
    </symbol>


    <symbol id="angle_up" viewBox="0 0 576 512">
        <path
            d="M169.4 137.4c12.5-12.5 32.8-12.5 45.3 0l160 160c12.5 12.5 12.5 32.8 0 45.3s-32.8 12.5-45.3 0L192 205.3 54.6 342.6c-12.5 12.5-32.8 12.5-45.3 0s-12.5-32.8 0-45.3l160-160z" />
    </symbol>


</svg>